Coordinates
version=1
nRows=8
nColumns=63
inDegrees=yes

Units are S.I. units (second, meters, Newtons, ...)
If the header above contains a line with 'inDegrees', this indicates whether rotational values are in degrees (yes) or radians (no).

endheader
time	pelvis_tilt	pelvis_list	pelvis_rotation	pelvis_tx	pelvis_ty	pelvis_tz	hip_flexion_r	hip_adduction_r	hip_rotation_r	knee_angle_r	knee_angle_r_beta	ankle_angle_r	subtalar_angle_r	mtp_angle_r	hip_flexion_l	hip_adduction_l	hip_rotation_l	knee_angle_l	knee_angle_l_beta	ankle_angle_l	subtalar_angle_l	mtp_angle_l	L5_S1_Flex_Ext	L5_S1_Lat_Bending	L5_S1_axial_rotation	L4_L5_Flex_Ext	L4_L5_Lat_Bending	L4_L5_axial_rotation	L3_L4_Flex_Ext	L3_L4_Lat_Bending	L3_L4_axial_rotation	L2_L3_Flex_Ext	L2_L3_Lat_Bending	L2_L3_axial_rotation	L1_L2_Flex_Ext	L1_L2_Lat_Bending	L1_L2_axial_rotation	L1_T12_Flex_Ext	L1_T12_Lat_Bending	L1_T12_axial_rotation	Abs_r3	Abs_r2	Abs_r1	Abs_t1	Abs_t2	neck_flexion	neck_bending	neck_rotation	arm_flex_r	arm_add_r	arm_rot_r	elbow_flex_r	pro_sup_r	wrist_flex_r	wrist_dev_r	arm_flex_l	arm_add_l	arm_rot_l	elbow_flex_l	pro_sup_l	wrist_flex_l	wrist_dev_l
1.898305	-5.814404	-8.612727	86.684636	0.198284	1.152406	0.420817	8.786418	-4.493411	-3.743598	8.594377	0.150000	18.484331	16.159271	0.000000	6.703104	3.302740	-21.549370	6.041209	0.105439	10.456093	12.366067	0.000000	-0.618646	-0.695416	1.772057	-1.148888	-0.924904	1.882811	-1.016374	-1.690836	1.882811	-0.707051	-1.690836	1.550550	-0.574475	-1.418093	1.439797	-0.353495	-1.077200	1.329043	-4.418930	-7.866690	9.855652	0.000000	0.000000	-10.089462	5.004727	-9.350080	32.224953	-8.508774	2.093762	148.309919	89.419223	12.971465	5.557342	32.154569	-14.299860	19.664577	149.842258	89.381231	-1.715840	-8.034294
1.915254	-5.648024	-8.576304	86.769770	0.198028	1.152260	0.420934	8.837409	-4.338431	-3.809941	8.729640	0.152361	18.611965	16.013257	0.000000	6.684988	3.130571	-21.067343	6.138548	0.107138	10.694610	12.091526	0.000000	-0.619389	-0.675525	1.709701	-1.150267	-0.898448	1.816557	-1.017594	-1.642471	1.816557	-0.707899	-1.642471	1.495988	-0.575164	-1.377530	1.389132	-0.353919	-1.046388	1.282276	-4.424232	-7.641672	9.508844	0.000000	0.000000	-10.194668	4.840648	-9.252474	32.426214	-8.422248	1.982212	148.104290	89.422546	12.832091	7.013055	32.294236	-14.432264	19.006699	149.840728	89.359952	-1.499088	-7.760617
1.932203	-5.483366	-8.578059	86.876450	0.197768	1.152073	0.421046	8.919842	-4.181737	-3.862061	8.844670	0.154369	18.715464	15.863287	0.000000	6.687376	2.966478	-20.600692	6.190653	0.108047	10.891879	11.860313	0.000000	-0.620482	-0.656057	1.648483	-1.152298	-0.872556	1.751513	-1.019391	-1.595137	1.751513	-0.709149	-1.595137	1.442423	-0.576180	-1.337832	1.339392	-0.354544	-1.016233	1.236362	-4.432044	-7.421450	9.168368	0.000000	0.000000	-10.178859	4.708750	-9.058071	32.606314	-8.333355	1.898644	147.950463	89.425943	12.605431	8.343576	32.423584	-14.583101	18.226577	149.839134	89.330586	-1.387718	-7.439881
1.949153	-5.321388	-8.612696	87.015653	0.197508	1.151869	0.421123	9.020517	-4.024556	-3.898720	8.930608	0.155869	18.788681	15.696154	0.000000	6.703028	2.813002	-20.145591	6.193972	0.108105	11.045922	11.677102	0.000000	-0.622404	-0.636543	1.586283	-1.155866	-0.846603	1.685425	-1.022547	-1.547691	1.685425	-0.711346	-1.547691	1.387997	-0.577964	-1.298039	1.288855	-0.355642	-0.986006	1.189712	-4.445769	-7.200706	8.822428	0.000000	0.000000	-10.047501	4.628412	-8.729108	32.750953	-8.226217	1.846180	147.856849	89.428390	12.397015	9.474475	32.515402	-14.734117	17.276957	149.837356	89.292055	-1.231773	-7.066887
1.966102	-5.165425	-8.685520	87.179059	0.197249	1.151647	0.421159	9.147493	-3.869811	-3.913617	8.990669	0.156917	18.834429	15.516927	0.000000	6.742455	2.670719	-19.723013	6.158819	0.107492	11.163135	11.539966	0.000000	-0.622969	-0.618088	1.529173	-1.156916	-0.822057	1.624747	-1.023476	-1.502820	1.624747	-0.711992	-1.502820	1.338027	-0.578489	-1.260406	1.242453	-0.355965	-0.957419	1.146880	-4.449808	-6.991938	8.504803	0.000000	0.000000	-9.837443	4.554837	-8.383160	32.815016	-8.144908	1.813053	147.824481	89.430882	12.173797	10.162398	32.585311	-14.887902	16.320320	149.835669	89.246083	-1.265271	-6.656458
1.983051	-5.010515	-8.793784	87.361317	0.196976	1.151403	0.421129	9.292023	-3.712623	-3.906902	9.016791	0.157373	18.846928	15.324150	0.000000	6.802045	2.534770	-19.350717	6.085590	0.106214	11.246989	11.459060	0.000000	-0.620602	-0.599501	1.477591	-1.152519	-0.797336	1.569941	-1.019586	-1.457626	1.569941	-0.709285	-1.457626	1.292892	-0.576291	-1.222502	1.200543	-0.354612	-0.928627	1.108193	-4.432895	-6.781673	8.217919	0.000000	0.000000	-9.572514	4.491339	-8.031885	32.785644	-8.093396	1.789814	147.854520	89.433713	11.971867	10.311996	32.609487	-15.036976	15.407739	149.834092	89.200605	-1.462348	-6.329189
2.000000	-4.865720	-8.914514	87.535866	0.196712	1.151156	0.421059	9.440019	-3.562435	-3.866557	9.022176	0.157467	18.837516	15.128624	0.000000	6.860590	2.412630	-19.046952	5.979280	0.104358	11.297374	11.419201	0.000000	-0.616584	-0.581131	1.434011	-1.145059	-0.772904	1.523637	-1.012986	-1.412962	1.523637	-0.704694	-1.412962	1.254760	-0.572560	-1.185043	1.165134	-0.352316	-0.900172	1.075508	-4.404200	-6.573872	7.975540	0.000000	0.000000	-9.296270	4.431104	-7.667749	32.682983	-8.053970	1.719653	147.946158	89.434843	11.972761	10.054988	32.588821	-15.153571	14.482504	149.833360	89.158147	-1.507099	-6.055393
2.016949	-4.722941	-9.034326	87.696602	0.196435	1.150920	0.420927	9.575552	-3.412793	-3.796352	9.008432	0.157227	18.809081	14.928283	0.000000	6.907645	2.294778	-18.824678	5.851920	0.102135	11.323556	11.438459	0.000000	-0.610711	-0.562586	1.400564	-1.134151	-0.748239	1.488100	-1.003336	-1.367871	1.488100	-0.697981	-1.367871	1.225494	-0.567106	-1.147225	1.137959	-0.348960	-0.871445	1.050423	-4.362244	-6.364081	7.789519	0.000000	0.000000	-9.045905	4.424366	-7.347508	32.494603	-8.058100	1.579388	148.088222	89.436986	12.149379	9.329408	32.527088	-15.225266	13.667363	149.833583	89.125533	-1.452708	-5.901506
